<svg xmlns="http://www.w3.org/2000/svg" viewBox="0 0 512 512">
  <path fill="#F7DF1E" d="M0 0h512v512H0z"/>
  <path fill="#000" d="M324.37 130.29L311.08 145a6 6 0 0 0 2.93 8.57l30.47 9.23a6 6 0 0 0 8.57-2.93l11.27-14.74a6 6 0 0 0-2.93-8.57l-30.47-9.23a6 6 0 0 0-8.57 2.93zm-62.34 5.12a6 6 0 0 0-4.58 9.7l25.29 30.87a6 6 0 0 0 9.7-4.58L297.6 140.5a6 6 0 0 0-4.58-9.7zm-48.73 84.48a6 6 0 0 0-6 6v21.47a6 6 0 0 0 6 6h21.47a6 6 0 0 0 6-6v-21.47a6 6 0 0 0-6-6zm-42.58 0a6 6 0 0 0-6 6v21.47a6 6 0 0 0 6 6h21.47a6 6 0 0 0 6-6v-21.47a6 6 0 0 0-6-6z"/>
</svg>

