<svg xmlns="http://www.w3.org/2000/svg" viewBox="0 0 512 512">
  <path fill="#61DAFB" d="M418.2 177.2c-5.4-1.8-10.8-3.5-16.2-5.1.9-3.7 1.7-7.4 2.5-11.1 12.3-59.6 4.2-107.5-20.8-123.3-25.6-16.3-65.6-6.2-106.1 22.6-4.1 2.9-8.1 6-12.1 9.1-3.6-3.7-7.3-7.4-11-11 0 0 0 0-1.1-1.1-27.6-29.7-75.8-42.2-111.4-28.2-26.2 10.7-41.2 38.8-41.8 71.5-.6 31.5 11.3 64.2 30.8 95.9 20.8 34.6 49.6 69.4 76.2 100.9 26.6 31.5 50.9 58.6 67.7 76.4 17.9 19.1 33.2 30.5 39.8 33.8 6.6 3.3 12.6 5.2 15.6 5.5 3 .3 8.6-1.7 15.8-6.4 7.2-4.7 16.5-12.3 25.4-22.1 8.9-9.8 18.4-21.9 25.9-35.1 7.5-13.1 14.1-27.1 18.7-41.1 4.6-14 8.3-28.4 10.7-42.4 2.4-14 3.5-27.7 3.1-40.6-.4-12.9-2.1-25.1-5.3-36.2z"/>
  <path fill="#61DAFB" d="M352.9 155.9c-4.1-2.9-8.1-6-12.1-9.1-3.6-3.7-7.3-7.4-11-11 0 0 0 0-1.1-1.1-27.6-29.7-75.8-42.2-111.4-28.2-26.2 10.7-41.2 38.8-41.8 71.5-.6 31.5 11.3 64.2 30.8 95.9 20.8 34.6 49.6 69.4 76.2 100.9 26.6 31.5 50.9 58.6 67.7 76.4 17.9 19.1 33.2 30.5 39.8 33.8 6.6 3.3 12.6 5.2 15.6 5.5 3 .3 8.6-1.7 15.8-6.4 7.2-4.7 16.5-12.3 25.4-22.1 8.9-9.8 18.4-21.9 25.9-35.1 7.5-13.1 14.1-27.1 18.7-41.1 4.6-14 8.3-28.4 10.7-42.4 2.4-14 3.5-27.7 3.1-40.6-.4-12.9-2.1-25.1-5.3-36.2z"/>
</svg>

